{"title":"The Rainmaker.[x264](AC3)(5.1 ch) .7. MULTI_sub.mkv","uid":5221892,"size":2246289561,"categoryP":"video","categoryS":"movies","magnet":"?xt=urn:btih:e2fb4aac246fd1f3d295305477b14ff1aa132558&amp;dn=The+Rainmaker.%5Bx264%5D%28AC3%29%285.1+ch%29+.7.+MULTI_sub.mkv&amp;tr=udp%3A%2F%2Ftracker.openbittorrent.com%3A80&amp;tr=udp%3A%2F%2Fopen.demonii.com%3A1337&amp;tr=udp%3A%2F%2Ftracker.coppersurfer.tk%3A6969&amp;tr=udp%3A%2F%2Fexodus.desync.com%3A6969","seeders":1,"leechers":0,"uploader":"Zen_Bud","files":-1,"time":1260924221,"description":"General\nComplete name                    : The.Rainmaker.mkv\nFormat                           : Matroska\nFile size                        : 2.09 GiB\nDuration                         : 2h 9mn\nOverall bit rate                 : 2 305 Kbps\n\n\nVideo\nID                               : 1\nFormat                           : AVC\n\nCodec ID                         : V_MPEG4/ISO/AVC\nDuration                         : 2h 9mn\nBit rate                         : 1 808 Kbps\nWidth                            : 718 pixels\nHeight                           : 426 pixels\nDisplay aspect ratio             : 2.35\nFrame rate                       : 25.000 fps\nResolution                       : 24 bits\nColorimetry                      : 4:2:0\nScan type                        : Progressive\nBits/(Pixel*Frame)               : 0.236\nStream size                      : 1.64 GiB (78%)\nWriting library                  : x264 core 79\n\n\nAudio\nID                               : 2\nFormat                           : AC-3\nFormat/Info                      : Audio Coding 3\nCodec ID                         : A_AC3\nDuration                         : 2h 9mn\nBit rate mode                    : Constant\nBit rate                         : 448 Kbps\nChannel(s)                       : 6 channels\nChannel positions                : Front: L C R, Surround: L R, LFE\nSampling rate                    : 48.0 KHz\nStream size                      : 416 MiB (19%)\nLanguage                         : English\n\nText #1\nLanguage                         : Swedish\n\nText #2\nLanguage                         : Danish\n\nText #3\nLanguage                         : French\n\nText #4\nLanguage                         : Portuguese\n\nText #5\nLanguage                         : English\n\nText #6\nLanguage                         : Norwegian\n\nText #7\nLanguage                         : Spanish","torrent":{"xt":"urn:btih:e2fb4aac246fd1f3d295305477b14ff1aa132558","amp;dn":"The+Rainmaker.%5Bx264%5D%28AC3%29%285.1+ch%29+.7.+MULTI_sub.mkv","amp;tr":["udp%3A%2F%2Ftracker.openbittorrent.com%3A80","udp%3A%2F%2Fopen.demonii.com%3A1337","udp%3A%2F%2Ftracker.coppersurfer.tk%3A6969","udp%3A%2F%2Fexodus.desync.com%3A6969"],"infoHash":"e2fb4aac246fd1f3d295305477b14ff1aa132558","infoHashBuffer":{"type":"Buffer","data":[226,251,74,172,36,111,209,243,210,149,48,84,119,177,79,241,170,19,37,88]},"announce":[],"urlList":[]}}